<svg xmlns="http://www.w3.org/2000/svg" xmlns:xlink="http://www.w3.org/1999/xlink" width="500" zoomAndPan="magnify" viewBox="0 0 375 374.999991" height="500" preserveAspectRatio="xMidYMid meet" version="1.0"><defs><clipPath id="c3c7a6650b"><path d="M 149.15625 252 L 166 252 L 166 262 L 149.15625 262 Z M 149.15625 252 " clip-rule="nonzero"/></clipPath><clipPath id="a5c08ec7be"><path d="M 216 240 L 225.65625 240 L 225.65625 257 L 216 257 Z M 216 240 " clip-rule="nonzero"/></clipPath></defs><path fill="#fbd235" d="M 214.179688 155.351562 C 208.949219 170.875 192.160156 179.210938 176.671875 173.972656 C 161.1875 168.734375 152.867188 151.902344 158.09375 136.375 C 163.324219 120.847656 180.117188 112.511719 195.601562 117.753906 C 211.089844 122.992188 219.40625 139.828125 214.179688 155.351562 " fill-opacity="1" fill-rule="nonzero"/><path fill="#fab10b" d="M 209.023438 153.605469 C 204.757812 166.277344 191.050781 173.082031 178.414062 168.804688 C 165.773438 164.527344 158.984375 150.789062 163.25 138.117188 C 167.515625 125.449219 181.222656 118.644531 193.863281 122.917969 C 206.503906 127.195312 213.289062 140.9375 209.023438 153.605469 " fill-opacity="1" fill-rule="nonzero"/><path fill="#fbd235" d="M 187.390625 133.128906 C 192.460938 133.261719 197.175781 135.195312 197.457031 140.257812 L 189.035156 140.722656 C 188.886719 138.8125 186.90625 138.507812 185.675781 138.578125 C 184.90625 138.621094 182.402344 138.757812 182.488281 140.308594 C 182.679688 143.777344 197.996094 139.3125 198.535156 149.121094 C 198.863281 155.003906 194.386719 157.449219 188.769531 158.171875 L 189.476562 164.402344 L 184.335938 164.6875 L 184.304688 158.375 C 179.042969 158.113281 174.039062 155.921875 173.746094 150.628906 L 182.164062 150.164062 L 182.175781 150.347656 C 182.347656 152.667969 184.964844 152.984375 186.285156 152.910156 C 187.5625 152.839844 190.058594 152.609375 189.964844 150.921875 C 189.765625 147.320312 174.429688 151.460938 173.90625 141.972656 C 173.605469 136.5 177.722656 134.164062 182.933594 133.421875 L 182.265625 127.144531 L 187.40625 126.859375 L 187.390625 133.128906 " fill-opacity="1" fill-rule="nonzero"/><path fill="#fbcdc7" d="M 210.808594 170.425781 C 211.597656 168.222656 211.652344 165.667969 212.089844 163.347656 C 212.363281 161.878906 212.367188 160.867188 211.554688 159.609375 C 211.019531 158.773438 209.285156 156.722656 208.824219 157.558594 C 208.4375 158.121094 210.304688 160.46875 210.554688 161.085938 C 210.238281 160.390625 208.378906 157.019531 207.265625 157.726562 C 206.363281 158.300781 209.042969 161.242188 209.21875 162.003906 C 208.628906 160.980469 207.179688 158.988281 206.519531 159.375 C 205.878906 160.144531 207.5625 161.953125 208.226562 163.097656 C 207.824219 162.5625 206.175781 160.636719 205.882812 161.699219 C 205.601562 162.710938 207.476562 164.1875 207.703125 165.332031 C 207.964844 166.683594 207.992188 168.742188 207.484375 170.171875 C 207.222656 170.898438 210.386719 171.613281 210.808594 170.425781 " fill-opacity="1" fill-rule="nonzero"/><path fill="#fbcdc7" d="M 162.925781 173.136719 C 162.117188 170.941406 162.042969 168.386719 161.585938 166.074219 C 161.296875 164.605469 161.28125 163.59375 162.082031 162.328125 C 162.617188 161.488281 164.332031 159.421875 164.796875 160.253906 C 165.191406 160.8125 163.34375 163.175781 163.097656 163.796875 C 163.410156 163.097656 165.238281 159.710938 166.359375 160.410156 C 167.265625 160.972656 164.609375 163.941406 164.445312 164.703125 C 165.019531 163.675781 166.457031 161.667969 167.121094 162.050781 C 167.765625 162.816406 166.097656 164.636719 165.445312 165.789062 C 165.84375 165.25 167.472656 163.308594 167.777344 164.367188 C 168.066406 165.375 166.203125 166.867188 165.992188 168.015625 C 165.738281 169.371094 165.726562 171.429688 166.25 172.855469 C 166.515625 173.578125 163.359375 174.320312 162.925781 173.136719 " fill-opacity="1" fill-rule="nonzero"/><path fill="#fbcdc7" d="M 190.203125 181.175781 C 189.441406 181.816406 188.566406 182.355469 187.566406 182.769531 C 186.929688 183.035156 186.105469 183.277344 185.25 183.410156 C 185.035156 184.796875 184.53125 187.472656 183.777344 188.429688 C 183.777344 188.429688 183.621094 190.289062 187.066406 189.804688 C 190.511719 189.316406 189.769531 187.953125 189.769531 187.953125 C 189.769531 187.953125 189.640625 183.753906 190.203125 181.175781 " fill-opacity="1" fill-rule="nonzero"/><path fill="#e8958a" d="M 186.121094 189.761719 C 186.121094 189.648438 186.121094 189.53125 186.121094 189.417969 C 186.121094 188.980469 186.160156 188.527344 186.289062 188.113281 C 186.695312 186.804688 187.820312 185.875 189.160156 185.648438 C 189.367188 185.617188 189.570312 185.601562 189.773438 185.601562 C 189.808594 184.214844 189.917969 182.488281 190.203125 181.175781 C 189.441406 181.816406 188.566406 182.355469 187.566406 182.769531 C 186.929688 183.035156 186.105469 183.277344 185.25 183.410156 C 185.035156 184.796875 184.53125 187.472656 183.777344 188.429688 C 183.777344 188.429688 183.664062 189.917969 186.109375 189.878906 C 186.113281 189.839844 186.113281 189.800781 186.121094 189.761719 " fill-opacity="1" fill-rule="nonzero"/><g clip-path="url(#c3c7a6650b)"><path fill="#191730" d="M 164.84375 253.40625 C 164.84375 253.40625 165.433594 255.769531 165.441406 257.429688 C 165.449219 259.089844 164.839844 260.054688 164.332031 260.472656 C 163.316406 261.304688 151.339844 262.496094 150.292969 261.308594 C 149.25 260.117188 149.945312 258.191406 152.667969 257.527344 C 155.585938 256.8125 155.992188 256.417969 157.828125 255.71875 C 159.667969 255.019531 160.015625 252.59375 160.015625 252.59375 L 164.84375 253.40625 " fill-opacity="1" fill-rule="nonzero"/></g><g clip-path="url(#a5c08ec7be)"><path fill="#191730" d="M 218.578125 240.363281 C 218.578125 240.363281 221.589844 240.035156 223.066406 240.785156 C 224.550781 241.53125 225.125 242.511719 225.269531 243.152344 C 225.546875 244.441406 221.179688 255.679688 219.644531 256.074219 C 218.113281 256.46875 216.714844 254.972656 217.359375 252.238281 C 218.046875 249.308594 217.882812 248.765625 218.09375 246.804688 C 218.304688 244.847656 216.546875 244.453125 216.546875 244.453125 L 218.578125 240.363281 " fill-opacity="1" fill-rule="nonzero"/></g><path fill="#4ac0d2" d="M 192.933594 213.460938 L 181.230469 213.460938 C 181.230469 213.460938 164.925781 225.6875 162.769531 228.566406 C 161.40625 230.390625 159.023438 253.878906 159.023438 253.878906 L 165.707031 254.503906 C 165.707031 254.503906 168.949219 233.632812 170.0625 231.917969 C 171.171875 230.207031 192.933594 223.652344 192.933594 223.652344 C 192.933594 223.652344 195.691406 220.3125 192.933594 213.460938 " fill-opacity="1" fill-rule="nonzero"/><path fill="#6bc9e0" d="M 181.636719 227.234375 C 183.609375 226.578125 185.574219 225.945312 187.300781 225.398438 C 187.304688 225.398438 187.304688 225.40625 187.308594 225.410156 C 185.539062 225.96875 183.550781 226.605469 181.636719 227.234375 " fill-opacity="1" fill-rule="nonzero"/><path fill="#388dbb" d="M 175.074219 229.496094 C 175.613281 229.292969 179.183594 226.003906 180.386719 222.890625 C 180.992188 221.328125 181.230469 218.574219 181.339844 216.449219 C 181.746094 216.570312 182.183594 216.6875 182.652344 216.796875 C 183.808594 218.953125 185.503906 222.105469 187.300781 225.398438 C 185.574219 225.945312 183.609375 226.578125 181.636719 227.234375 C 179.070312 228.074219 176.644531 228.898438 175.074219 229.496094 " fill-opacity="1" fill-rule="nonzero"/><path fill="#4ac0d2" d="M 197.269531 213.066406 L 181.144531 213.976562 C 181.144531 213.976562 194.308594 238.757812 195.847656 240.042969 C 197.382812 241.328125 217.746094 246.285156 217.746094 246.285156 L 219.449219 239.828125 C 219.449219 239.828125 203.675781 235.503906 202.367188 234.421875 C 201.609375 233.792969 198.238281 225.492188 198.464844 221.117188 C 198.730469 216.050781 198.1875 213.769531 197.269531 213.066406 " fill-opacity="1" fill-rule="nonzero"/><path fill="#ee219b" d="M 189.429688 187.949219 C 189.429688 187.949219 186.441406 189.917969 183.878906 188.375 C 183.878906 188.375 182.683594 189.128906 179.949219 188.964844 C 177.214844 188.804688 171.238281 184.523438 170.554688 183.496094 C 169.871094 182.46875 166.113281 169.457031 166.113281 169.457031 L 161.757812 169.96875 C 161.757812 169.96875 164.574219 187.289062 165.429688 188.988281 C 166.214844 190.550781 174.863281 196.824219 179.042969 198.695312 C 179.628906 198.957031 180.003906 199.542969 179.949219 200.1875 C 179.71875 203.117188 178.691406 211.03125 177.65625 214.835938 C 177.65625 214.835938 185.074219 220.054688 199.082031 215.6875 C 199.082031 215.6875 198.9375 205.984375 197.417969 198.234375 C 197.148438 196.859375 197.578125 195.445312 198.566406 194.445312 C 201.394531 191.589844 207.007812 185.929688 207.707031 185.292969 C 208.648438 184.4375 211.636719 169.171875 211.636719 169.171875 L 207.25 168.886719 C 207.25 168.886719 203.039062 180.242188 202.46875 181.042969 C 201.898438 181.839844 195.007812 188.175781 194.382812 188.460938 C 194.03125 188.621094 193.109375 188.429688 192.035156 188.234375 C 191.191406 188.082031 190.257812 187.929688 189.429688 187.949219 " fill-opacity="1" fill-rule="nonzero"/><path fill="#f09cc7" d="M 198.078125 185.28125 C 200.066406 183.464844 202.164062 181.46875 202.46875 181.042969 C 202.503906 180.992188 202.554688 180.898438 202.617188 180.773438 C 202.554688 180.898438 202.503906 180.992188 202.46875 181.042969 C 202.164062 181.46875 200.066406 183.464844 198.078125 185.28125 M 206.859375 169.941406 C 206.96875 169.644531 207.058594 169.398438 207.125 169.222656 C 207.058594 169.402344 206.96875 169.644531 206.859375 169.941406 " fill-opacity="1" fill-rule="nonzero"/><path fill="#ed1280" d="M 198.078125 185.28125 C 200.066406 183.464844 202.164062 181.46875 202.46875 181.042969 C 202.503906 180.992188 202.554688 180.898438 202.617188 180.773438 C 203.367188 179.242188 205.890625 172.535156 206.859375 169.941406 C 206.96875 169.644531 207.058594 169.402344 207.125 169.222656 C 207.320312 171.242188 205.605469 175.25 205.316406 177.351562 C 204.707031 181.75 202.445312 183.445312 198.734375 184.988281 C 198.519531 185.078125 198.296875 185.183594 198.078125 185.28125 " fill-opacity="1" fill-rule="nonzero"/><path fill="#f09cc7" d="M 198.414062 215.890625 C 198.421875 215.890625 198.425781 215.886719 198.429688 215.886719 C 198.425781 215.886719 198.421875 215.890625 198.414062 215.890625 M 198.4375 215.882812 C 198.441406 215.882812 198.449219 215.878906 198.453125 215.878906 C 198.445312 215.878906 198.441406 215.882812 198.4375 215.882812 M 198.457031 215.878906 C 198.464844 215.875 198.472656 215.875 198.476562 215.871094 C 198.472656 215.875 198.464844 215.875 198.457031 215.878906 M 198.480469 215.871094 C 198.65625 215.820312 198.832031 215.765625 199.007812 215.710938 C 198.832031 215.765625 198.65625 215.820312 198.480469 215.871094 M 199.007812 215.710938 C 199.015625 215.707031 199.023438 215.707031 199.03125 215.703125 C 199.023438 215.707031 199.015625 215.707031 199.007812 215.710938 M 199.035156 215.703125 C 199.039062 215.703125 199.050781 215.699219 199.054688 215.695312 C 199.046875 215.699219 199.039062 215.703125 199.035156 215.703125 M 199.058594 215.695312 C 199.0625 215.691406 199.074219 215.691406 199.082031 215.6875 C 199.074219 215.691406 199.0625 215.691406 199.058594 215.695312 M 200.714844 192.277344 C 201.996094 190.988281 203.410156 189.5625 204.640625 188.332031 C 203.425781 189.546875 202.03125 190.949219 200.765625 192.226562 C 200.75 192.242188 200.730469 192.261719 200.714844 192.277344 " fill-opacity="1" fill-rule="nonzero"/><path fill="#ed1280" d="M 189.785156 217.398438 C 190.695312 217.355469 193.359375 208.914062 193.671875 207.554688 C 193.953125 206.332031 195.117188 198.066406 195.273438 196.894531 C 195.433594 195.714844 195.699219 195.207031 196.589844 194.417969 C 198.882812 192.382812 201.417969 190.589844 203.847656 188.722656 C 204.097656 188.53125 204.394531 188.453125 204.640625 188.332031 C 203.410156 189.5625 201.996094 190.988281 200.714844 192.277344 C 200.667969 192.324219 200.625 192.371094 200.578125 192.414062 L 200.503906 192.488281 C 200.207031 192.789062 199.917969 193.082031 199.640625 193.359375 C 199.550781 193.453125 199.460938 193.542969 199.371094 193.632812 C 199.085938 193.917969 198.8125 194.195312 198.5625 194.449219 C 197.574219 195.445312 197.148438 196.859375 197.417969 198.234375 C 198.9375 205.984375 199.082031 215.6875 199.082031 215.6875 C 199.074219 215.691406 199.0625 215.691406 199.058594 215.695312 C 199.058594 215.695312 199.054688 215.695312 199.054688 215.695312 C 199.050781 215.699219 199.039062 215.703125 199.035156 215.703125 C 199.03125 215.703125 199.03125 215.703125 199.03125 215.703125 C 199.023438 215.707031 199.015625 215.707031 199.007812 215.710938 C 198.832031 215.765625 198.65625 215.820312 198.480469 215.871094 C 198.480469 215.871094 198.476562 215.871094 198.476562 215.871094 C 198.472656 215.875 198.464844 215.875 198.457031 215.878906 C 198.457031 215.878906 198.457031 215.878906 198.453125 215.878906 C 198.449219 215.878906 198.441406 215.882812 198.4375 215.882812 C 198.433594 215.886719 198.433594 215.886719 198.429688 215.886719 C 198.425781 215.886719 198.421875 215.890625 198.414062 215.890625 C 198.414062 215.890625 198.410156 215.890625 198.40625 215.890625 C 195.164062 216.847656 192.285156 217.285156 189.785156 217.398438 " fill-opacity="1" fill-rule="nonzero"/><path fill="#f09cc7" d="M 179.5 204.324219 C 179.660156 203.066406 179.789062 201.929688 179.875 201.035156 C 179.789062 201.929688 179.660156 203.066406 179.5 204.320312 C 179.5 204.320312 179.5 204.320312 179.5 204.324219 M 179.949219 200.199219 C 179.949219 200.195312 179.949219 200.195312 179.949219 200.195312 C 180 199.554688 179.640625 198.976562 179.066406 198.703125 C 179.640625 198.972656 180.003906 199.550781 179.949219 200.1875 C 179.949219 200.191406 179.949219 200.195312 179.949219 200.199219 M 170.441406 193.347656 L 170.441406 193.347656 M 170.4375 193.34375 C 170.433594 193.34375 170.433594 193.34375 170.429688 193.339844 C 170.433594 193.34375 170.433594 193.34375 170.4375 193.34375 M 170.429688 193.339844 C 170.425781 193.335938 170.425781 193.335938 170.421875 193.335938 C 170.425781 193.335938 170.425781 193.335938 170.429688 193.339844 M 170.421875 193.332031 C 170.417969 193.332031 170.417969 193.332031 170.414062 193.328125 C 170.417969 193.332031 170.417969 193.332031 170.421875 193.332031 M 170.414062 193.328125 C 170.410156 193.324219 170.410156 193.324219 170.40625 193.324219 C 170.410156 193.324219 170.410156 193.324219 170.414062 193.328125 M 170.40625 193.324219 C 170.402344 193.320312 170.402344 193.320312 170.398438 193.316406 C 170.402344 193.320312 170.402344 193.320312 170.40625 193.324219 M 170.398438 193.316406 C 167.871094 191.46875 165.800781 189.71875 165.429688 188.992188 C 165.800781 189.71875 167.871094 191.46875 170.398438 193.316406 M 165.429688 188.984375 C 165.335938 188.796875 165.21875 188.425781 165.085938 187.90625 C 165.21875 188.425781 165.335938 188.796875 165.429688 188.984375 " fill-opacity="1" fill-rule="nonzero"/><path fill="#ed1280" d="M 179.5 204.320312 C 179.660156 203.066406 179.789062 201.929688 179.875 201.035156 C 179.90625 200.726562 179.929688 200.445312 179.949219 200.199219 C 179.949219 200.195312 179.949219 200.191406 179.949219 200.1875 C 180.003906 199.550781 179.640625 198.972656 179.066406 198.703125 C 179.054688 198.699219 179.046875 198.695312 179.035156 198.691406 C 176.8125 197.695312 173.332031 195.460938 170.441406 193.347656 C 170.4375 193.347656 170.4375 193.347656 170.4375 193.34375 C 170.433594 193.34375 170.433594 193.34375 170.429688 193.339844 C 170.425781 193.335938 170.425781 193.335938 170.421875 193.335938 C 170.421875 193.335938 170.421875 193.332031 170.421875 193.332031 C 170.417969 193.332031 170.417969 193.332031 170.414062 193.328125 C 170.410156 193.324219 170.410156 193.324219 170.40625 193.324219 C 170.402344 193.320312 170.402344 193.320312 170.398438 193.316406 C 167.871094 191.46875 165.800781 189.71875 165.429688 188.992188 C 165.429688 188.988281 165.429688 188.988281 165.429688 188.988281 C 165.429688 188.988281 165.429688 188.988281 165.429688 188.984375 C 165.335938 188.796875 165.21875 188.425781 165.085938 187.90625 C 164.597656 186.027344 163.882812 182.253906 163.238281 178.652344 C 163.933594 180.503906 164.671875 182.316406 165.429688 184 C 167.644531 188.929688 171.296875 192.539062 176.191406 194.710938 C 179.667969 196.257812 180.371094 196.453125 180.699219 196.925781 C 180.5625 199.382812 180.003906 201.789062 179.5 204.320312 " fill-opacity="1" fill-rule="nonzero"/><path fill="#fbcdc7" d="M 190.8125 174.691406 C 190.8125 174.691406 185.21875 171.882812 183.765625 173.207031 C 182.316406 174.53125 182.332031 177.992188 182.0625 178.347656 C 181.789062 178.699219 180.5 180.136719 180.417969 180.445312 C 180.335938 180.753906 181.804688 181.164062 181.867188 181.398438 C 181.929688 181.632812 182.273438 184.382812 183.234375 184.890625 C 184.191406 185.394531 189.738281 184.804688 191.300781 181.878906 C 192.867188 178.953125 192.828125 175.761719 190.8125 174.691406 " fill-opacity="1" fill-rule="nonzero"/><path fill="#191730" d="M 192.042969 171.875 L 188.527344 173.609375 C 188.527344 173.609375 187.648438 178.261719 187.71875 180.183594 C 187.789062 182.105469 188.828125 180.390625 188.917969 179.285156 C 189.007812 178.179688 189.925781 178.113281 190.5 178.640625 C 191.070312 179.164062 190.648438 180.386719 189.34375 181.023438 C 189.34375 181.023438 188.558594 182.546875 189.125 183.878906 C 189.125 183.878906 191.394531 183.390625 192.832031 180.546875 C 194.121094 177.992188 194.808594 174.25 192.042969 171.875 " fill-opacity="1" fill-rule="nonzero"/><path fill="#191730" d="M 191.144531 170.40625 C 190.359375 169.828125 188.851562 169.539062 187.921875 169.460938 C 186.839844 169.375 185.4375 170.113281 184.652344 170.910156 C 183.949219 171.625 183.320312 172.152344 182.257812 172.292969 C 181.527344 172.386719 181.230469 172.355469 180.691406 171.917969 C 180.417969 172.480469 180.601562 173.769531 181.019531 174.636719 C 181.34375 175.089844 181.640625 175.621094 182.125 175.910156 C 183.875 176.945312 185.855469 176.886719 186.292969 176.910156 C 187.246094 176.957031 188.21875 176.894531 189.136719 176.617188 C 190.15625 176.308594 193.246094 173.828125 193.191406 173.226562 C 193.085938 172.152344 191.875 170.945312 191.144531 170.40625 " fill-opacity="1" fill-rule="nonzero"/></svg>