<svg xmlns="http://www.w3.org/2000/svg" xmlns:xlink="http://www.w3.org/1999/xlink" width="500" zoomAndPan="magnify" viewBox="0 0 375 374.999991" height="500" preserveAspectRatio="xMidYMid meet" version="1.0"><defs><clipPath id="35232d06bf"><path d="M 172 250 L 240 250 L 240 262.5 L 172 262.5 Z M 172 250 " clip-rule="nonzero"/></clipPath><clipPath id="2c82a0536d"><path d="M 175 250 L 180 250 L 180 262.5 L 175 262.5 Z M 175 250 " clip-rule="nonzero"/></clipPath><clipPath id="32f940d7fc"><path d="M 183 250 L 187 250 L 187 262.5 L 183 262.5 Z M 183 250 " clip-rule="nonzero"/></clipPath><clipPath id="a8e8868027"><path d="M 190 250 L 194 250 L 194 262.5 L 190 262.5 Z M 190 250 " clip-rule="nonzero"/></clipPath><clipPath id="a228c2502a"><path d="M 197 250 L 201 250 L 201 262.5 L 197 262.5 Z M 197 250 " clip-rule="nonzero"/></clipPath><clipPath id="36066dc7ca"><path d="M 204 250 L 208 250 L 208 262.5 L 204 262.5 Z M 204 250 " clip-rule="nonzero"/></clipPath><clipPath id="5d550c64f5"><path d="M 211 250 L 215 250 L 215 262.5 L 211 262.5 Z M 211 250 " clip-rule="nonzero"/></clipPath><clipPath id="2a9cf2ac08"><path d="M 218 250 L 223 250 L 223 262.5 L 218 262.5 Z M 218 250 " clip-rule="nonzero"/></clipPath><clipPath id="477c54b791"><path d="M 225 250 L 230 250 L 230 262.5 L 225 262.5 Z M 225 250 " clip-rule="nonzero"/></clipPath><clipPath id="d831114181"><path d="M 232 250 L 237 250 L 237 262.5 L 232 262.5 Z M 232 250 " clip-rule="nonzero"/></clipPath><clipPath id="9d8c3a81c9"><path d="M 175 227 L 242.71875 227 L 242.71875 240 L 175 240 Z M 175 227 " clip-rule="nonzero"/></clipPath></defs><path fill="#4ac0d2" d="M 201.394531 143.78125 C 201.394531 143.78125 196.496094 161.410156 194.089844 164.292969 C 191.683594 167.175781 183.816406 171.425781 183.816406 171.425781 L 185.902344 175.109375 C 185.902344 175.109375 200.199219 167.835938 202.675781 161.890625 C 204.121094 158.425781 205.082031 155.433594 205.566406 152.757812 C 205.960938 150.574219 207.574219 145.148438 206.769531 142.980469 C 206.246094 141.570312 202.515625 140.820312 201.394531 143.78125 " fill-opacity="1" fill-rule="nonzero"/><path fill="#388dbb" d="M 189.472656 173.140625 L 184.789062 173.140625 L 183.816406 171.425781 C 183.816406 171.425781 191.683594 167.175781 194.089844 164.292969 C 194.765625 163.484375 195.636719 161.511719 196.542969 159.097656 C 197.425781 161.449219 198.582031 164.042969 199.304688 166.195312 C 196.382812 168.898438 192.347656 171.460938 189.472656 173.140625 " fill-opacity="1" fill-rule="nonzero"/><path fill="#191730" d="M 152.34375 227.917969 L 148.734375 224.550781 C 148.734375 224.550781 134.308594 223.492188 133.464844 224.757812 C 132.621094 226.019531 147.144531 232.859375 149.007812 232.734375 C 150.875 232.613281 152.097656 229.304688 152.34375 227.917969 " fill-opacity="1" fill-rule="nonzero"/><path fill="#fbcdc7" d="M 178.789062 179.191406 C 178.789062 179.191406 165.144531 175.722656 164.023438 177.96875 C 162.898438 180.210938 148.734375 224.550781 148.734375 224.550781 L 152.34375 227.917969 C 152.34375 227.917969 167.53125 190.488281 171.929688 186.578125 C 176.328125 182.667969 180.824219 180.734375 178.789062 179.191406 " fill-opacity="1" fill-rule="nonzero"/><path fill="#e8958a" d="M 178.789062 179.191406 C 178.789062 179.191406 165.144531 175.722656 164.023438 177.96875 C 162.898438 180.210938 148.734375 224.550781 148.734375 224.550781 L 152.34375 227.917969 C 152.34375 227.917969 167.53125 190.488281 171.929688 186.578125 C 176.328125 182.667969 180.824219 180.734375 178.789062 179.191406 " fill-opacity="1" fill-rule="nonzero"/><g clip-path="url(#35232d06bf)"><path fill="#fbd235" d="M 239.605469 262.507812 L 172.195312 262.507812 L 172.195312 250.914062 L 239.605469 250.914062 L 239.605469 262.507812 " fill-opacity="1" fill-rule="nonzero"/></g><g clip-path="url(#2c82a0536d)"><path fill="#fab10b" d="M 179.355469 262.507812 L 175.964844 262.507812 L 175.964844 250.914062 L 179.355469 250.914062 L 179.355469 262.507812 " fill-opacity="1" fill-rule="nonzero"/></g><g clip-path="url(#32f940d7fc)"><path fill="#fab10b" d="M 186.484375 262.507812 L 183.089844 262.507812 L 183.089844 250.914062 L 186.484375 250.914062 L 186.484375 262.507812 " fill-opacity="1" fill-rule="nonzero"/></g><g clip-path="url(#a8e8868027)"><path fill="#fab10b" d="M 193.609375 262.507812 L 190.214844 262.507812 L 190.214844 250.914062 L 193.609375 250.914062 L 193.609375 262.507812 " fill-opacity="1" fill-rule="nonzero"/></g><g clip-path="url(#a228c2502a)"><path fill="#fab10b" d="M 200.734375 262.507812 L 197.339844 262.507812 L 197.339844 250.914062 L 200.734375 250.914062 L 200.734375 262.507812 " fill-opacity="1" fill-rule="nonzero"/></g><g clip-path="url(#36066dc7ca)"><path fill="#fab10b" d="M 207.859375 262.507812 L 204.464844 262.507812 L 204.464844 250.914062 L 207.859375 250.914062 L 207.859375 262.507812 " fill-opacity="1" fill-rule="nonzero"/></g><g clip-path="url(#5d550c64f5)"><path fill="#fab10b" d="M 214.984375 262.507812 L 211.589844 262.507812 L 211.589844 250.914062 L 214.984375 250.914062 L 214.984375 262.507812 " fill-opacity="1" fill-rule="nonzero"/></g><g clip-path="url(#2a9cf2ac08)"><path fill="#fab10b" d="M 222.113281 262.507812 L 218.714844 262.507812 L 218.714844 250.914062 L 222.113281 250.914062 L 222.113281 262.507812 " fill-opacity="1" fill-rule="nonzero"/></g><g clip-path="url(#477c54b791)"><path fill="#fab10b" d="M 229.238281 262.507812 L 225.84375 262.507812 L 225.84375 250.914062 L 229.238281 250.914062 L 229.238281 262.507812 " fill-opacity="1" fill-rule="nonzero"/></g><g clip-path="url(#d831114181)"><path fill="#fab10b" d="M 236.363281 262.507812 L 232.96875 262.507812 L 232.96875 250.914062 L 236.363281 250.914062 L 236.363281 262.507812 " fill-opacity="1" fill-rule="nonzero"/></g><path fill="#fbd235" d="M 231.046875 250.914062 L 163.636719 250.914062 L 163.636719 239.324219 L 231.046875 239.324219 L 231.046875 250.914062 " fill-opacity="1" fill-rule="nonzero"/><path fill="#fab10b" d="M 170.800781 250.914062 L 167.40625 250.914062 L 167.40625 239.324219 L 170.800781 239.324219 L 170.800781 250.914062 " fill-opacity="1" fill-rule="nonzero"/><path fill="#fab10b" d="M 177.925781 250.914062 L 174.53125 250.914062 L 174.53125 239.324219 L 177.925781 239.324219 L 177.925781 250.914062 " fill-opacity="1" fill-rule="nonzero"/><path fill="#fab10b" d="M 185.050781 250.914062 L 181.65625 250.914062 L 181.65625 239.324219 L 185.050781 239.324219 L 185.050781 250.914062 " fill-opacity="1" fill-rule="nonzero"/><path fill="#fab10b" d="M 192.175781 250.914062 L 188.78125 250.914062 L 188.78125 239.324219 L 192.175781 239.324219 L 192.175781 250.914062 " fill-opacity="1" fill-rule="nonzero"/><path fill="#fab10b" d="M 199.300781 250.914062 L 195.910156 250.914062 L 195.910156 239.324219 L 199.300781 239.324219 L 199.300781 250.914062 " fill-opacity="1" fill-rule="nonzero"/><path fill="#fab10b" d="M 206.425781 250.914062 L 203.035156 250.914062 L 203.035156 239.324219 L 206.425781 239.324219 L 206.425781 250.914062 " fill-opacity="1" fill-rule="nonzero"/><path fill="#fab10b" d="M 213.550781 250.914062 L 210.160156 250.914062 L 210.160156 239.324219 L 213.550781 239.324219 L 213.550781 250.914062 " fill-opacity="1" fill-rule="nonzero"/><path fill="#fab10b" d="M 220.675781 250.914062 L 217.285156 250.914062 L 217.285156 239.324219 L 220.675781 239.324219 L 220.675781 250.914062 " fill-opacity="1" fill-rule="nonzero"/><path fill="#fab10b" d="M 227.804688 250.914062 L 224.410156 250.914062 L 224.410156 239.324219 L 227.804688 239.324219 L 227.804688 250.914062 " fill-opacity="1" fill-rule="nonzero"/><g clip-path="url(#9d8c3a81c9)"><path fill="#fbd235" d="M 242.621094 239.324219 L 175.210938 239.324219 L 175.210938 227.730469 L 242.621094 227.730469 L 242.621094 239.324219 " fill-opacity="1" fill-rule="nonzero"/></g><path fill="#fab10b" d="M 182.375 239.324219 L 178.980469 239.324219 L 178.980469 227.730469 L 182.375 227.730469 L 182.375 239.324219 " fill-opacity="1" fill-rule="nonzero"/><path fill="#fab10b" d="M 189.5 239.324219 L 186.105469 239.324219 L 186.105469 227.730469 L 189.5 227.730469 L 189.5 239.324219 " fill-opacity="1" fill-rule="nonzero"/><path fill="#fab10b" d="M 196.625 239.324219 L 193.230469 239.324219 L 193.230469 227.730469 L 196.625 227.730469 L 196.625 239.324219 " fill-opacity="1" fill-rule="nonzero"/><path fill="#fab10b" d="M 203.75 239.324219 L 200.359375 239.324219 L 200.359375 227.730469 L 203.75 227.730469 L 203.75 239.324219 " fill-opacity="1" fill-rule="nonzero"/><path fill="#fab10b" d="M 210.875 239.324219 L 207.484375 239.324219 L 207.484375 227.730469 L 210.875 227.730469 L 210.875 239.324219 " fill-opacity="1" fill-rule="nonzero"/><path fill="#fab10b" d="M 218 239.324219 L 214.609375 239.324219 L 214.609375 227.730469 L 218 227.730469 L 218 239.324219 " fill-opacity="1" fill-rule="nonzero"/><path fill="#fab10b" d="M 225.125 239.324219 L 221.734375 239.324219 L 221.734375 227.730469 L 225.125 227.730469 L 225.125 239.324219 " fill-opacity="1" fill-rule="nonzero"/><path fill="#fab10b" d="M 232.253906 239.324219 L 228.859375 239.324219 L 228.859375 227.730469 L 232.253906 227.730469 L 232.253906 239.324219 " fill-opacity="1" fill-rule="nonzero"/><path fill="#fab10b" d="M 239.378906 239.324219 L 235.984375 239.324219 L 235.984375 227.730469 L 239.378906 227.730469 L 239.378906 239.324219 " fill-opacity="1" fill-rule="nonzero"/><path fill="#fbd235" d="M 236.738281 227.730469 L 169.328125 227.730469 L 169.328125 216.136719 L 236.738281 216.136719 L 236.738281 227.730469 " fill-opacity="1" fill-rule="nonzero"/><path fill="#fab10b" d="M 176.492188 227.730469 L 173.097656 227.730469 L 173.097656 216.136719 L 176.492188 216.136719 L 176.492188 227.730469 " fill-opacity="1" fill-rule="nonzero"/><path fill="#fab10b" d="M 183.617188 227.730469 L 180.222656 227.730469 L 180.222656 216.136719 L 183.617188 216.136719 L 183.617188 227.730469 " fill-opacity="1" fill-rule="nonzero"/><path fill="#fab10b" d="M 190.742188 227.730469 L 187.347656 227.730469 L 187.347656 216.136719 L 190.742188 216.136719 L 190.742188 227.730469 " fill-opacity="1" fill-rule="nonzero"/><path fill="#fab10b" d="M 197.867188 227.730469 L 194.476562 227.730469 L 194.476562 216.136719 L 197.867188 216.136719 L 197.867188 227.730469 " fill-opacity="1" fill-rule="nonzero"/><path fill="#fab10b" d="M 204.996094 227.730469 L 201.601562 227.730469 L 201.601562 216.136719 L 204.996094 216.136719 L 204.996094 227.730469 " fill-opacity="1" fill-rule="nonzero"/><path fill="#fab10b" d="M 212.121094 227.730469 L 208.726562 227.730469 L 208.726562 216.136719 L 212.121094 216.136719 L 212.121094 227.730469 " fill-opacity="1" fill-rule="nonzero"/><path fill="#fab10b" d="M 219.246094 227.730469 L 215.851562 227.730469 L 215.851562 216.136719 L 219.246094 216.136719 L 219.246094 227.730469 " fill-opacity="1" fill-rule="nonzero"/><path fill="#fab10b" d="M 226.371094 227.730469 L 222.976562 227.730469 L 222.976562 216.136719 L 226.371094 216.136719 L 226.371094 227.730469 " fill-opacity="1" fill-rule="nonzero"/><path fill="#fab10b" d="M 233.496094 227.730469 L 230.101562 227.730469 L 230.101562 216.136719 L 233.496094 216.136719 L 233.496094 227.730469 " fill-opacity="1" fill-rule="nonzero"/><path fill="#fbd235" d="M 228.179688 216.136719 L 160.769531 216.136719 L 160.769531 204.542969 L 228.179688 204.542969 L 228.179688 216.136719 " fill-opacity="1" fill-rule="nonzero"/><path fill="#fab10b" d="M 167.933594 216.136719 L 164.539062 216.136719 L 164.539062 204.542969 L 167.933594 204.542969 L 167.933594 216.136719 " fill-opacity="1" fill-rule="nonzero"/><path fill="#fab10b" d="M 175.058594 216.136719 L 171.667969 216.136719 L 171.667969 204.542969 L 175.058594 204.542969 L 175.058594 216.136719 " fill-opacity="1" fill-rule="nonzero"/><path fill="#fab10b" d="M 182.183594 216.136719 L 178.792969 216.136719 L 178.792969 204.542969 L 182.183594 204.542969 L 182.183594 216.136719 " fill-opacity="1" fill-rule="nonzero"/><path fill="#fab10b" d="M 189.308594 216.136719 L 185.917969 216.136719 L 185.917969 204.542969 L 189.308594 204.542969 L 189.308594 216.136719 " fill-opacity="1" fill-rule="nonzero"/><path fill="#fab10b" d="M 196.4375 216.136719 L 193.042969 216.136719 L 193.042969 204.542969 L 196.4375 204.542969 L 196.4375 216.136719 " fill-opacity="1" fill-rule="nonzero"/><path fill="#fab10b" d="M 203.5625 216.136719 L 200.167969 216.136719 L 200.167969 204.542969 L 203.5625 204.542969 L 203.5625 216.136719 " fill-opacity="1" fill-rule="nonzero"/><path fill="#fab10b" d="M 210.6875 216.136719 L 207.292969 216.136719 L 207.292969 204.542969 L 210.6875 204.542969 L 210.6875 216.136719 " fill-opacity="1" fill-rule="nonzero"/><path fill="#fab10b" d="M 217.8125 216.136719 L 214.421875 216.136719 L 214.421875 204.542969 L 217.8125 204.542969 L 217.8125 216.136719 " fill-opacity="1" fill-rule="nonzero"/><path fill="#fab10b" d="M 224.9375 216.136719 L 221.546875 216.136719 L 221.546875 204.542969 L 224.9375 204.542969 L 224.9375 216.136719 " fill-opacity="1" fill-rule="nonzero"/><path fill="#fbd235" d="M 237.265625 204.542969 L 169.855469 204.542969 L 169.855469 192.953125 L 237.265625 192.953125 L 237.265625 204.542969 " fill-opacity="1" fill-rule="nonzero"/><path fill="#fab10b" d="M 177.019531 204.542969 L 173.625 204.542969 L 173.625 192.953125 L 177.019531 192.953125 L 177.019531 204.542969 " fill-opacity="1" fill-rule="nonzero"/><path fill="#fab10b" d="M 184.144531 204.542969 L 180.75 204.542969 L 180.75 192.953125 L 184.144531 192.953125 L 184.144531 204.542969 " fill-opacity="1" fill-rule="nonzero"/><path fill="#fab10b" d="M 191.269531 204.542969 L 187.878906 204.542969 L 187.878906 192.953125 L 191.269531 192.953125 L 191.269531 204.542969 " fill-opacity="1" fill-rule="nonzero"/><path fill="#fab10b" d="M 198.398438 204.542969 L 195.003906 204.542969 L 195.003906 192.953125 L 198.398438 192.953125 L 198.398438 204.542969 " fill-opacity="1" fill-rule="nonzero"/><path fill="#fab10b" d="M 205.523438 204.542969 L 202.128906 204.542969 L 202.128906 192.953125 L 205.523438 192.953125 L 205.523438 204.542969 " fill-opacity="1" fill-rule="nonzero"/><path fill="#fab10b" d="M 212.648438 204.542969 L 209.253906 204.542969 L 209.253906 192.953125 L 212.648438 192.953125 L 212.648438 204.542969 " fill-opacity="1" fill-rule="nonzero"/><path fill="#fab10b" d="M 219.773438 204.542969 L 216.378906 204.542969 L 216.378906 192.953125 L 219.773438 192.953125 L 219.773438 204.542969 " fill-opacity="1" fill-rule="nonzero"/><path fill="#fab10b" d="M 226.898438 204.542969 L 223.507812 204.542969 L 223.507812 192.953125 L 226.898438 192.953125 L 226.898438 204.542969 " fill-opacity="1" fill-rule="nonzero"/><path fill="#fab10b" d="M 234.023438 204.542969 L 230.632812 204.542969 L 230.632812 192.953125 L 234.023438 192.953125 L 234.023438 204.542969 " fill-opacity="1" fill-rule="nonzero"/><path fill="#fbcdc7" d="M 185.824219 171.023438 C 184.789062 170.746094 183.933594 170.40625 182.988281 169.886719 C 182.230469 169.472656 181.492188 169.074219 180.582031 169.207031 C 179.929688 169.300781 174.691406 171.476562 176.085938 172.453125 C 176.539062 172.765625 177.667969 172.214844 178.121094 172.054688 C 178.765625 171.820312 179.410156 171.507812 180.03125 171.234375 C 179.464844 171.207031 176.628906 172.40625 176.929688 173.066406 C 177.449219 174.230469 180.320312 172.675781 180.992188 172.304688 C 180.480469 172.382812 178.703125 173.046875 178.707031 173.691406 C 178.710938 174.710938 180.816406 173.859375 181.277344 173.628906 C 181.613281 173.457031 181.867188 173.210938 182.238281 173.160156 C 182.679688 173.101562 183.109375 173.300781 183.523438 173.386719 C 184.246094 173.539062 185.023438 173.5 185.757812 173.429688 C 186.195312 173.390625 187.210938 173.480469 187.429688 173.109375 C 187.660156 172.710938 187.484375 171.808594 187.148438 171.519531 C 186.785156 171.210938 186.289062 171.148438 185.824219 171.023438 " fill-opacity="1" fill-rule="nonzero"/><path fill="#e8958a" d="M 185.824219 171.023438 C 184.789062 170.746094 183.933594 170.40625 182.988281 169.886719 C 182.230469 169.472656 181.492188 169.074219 180.582031 169.207031 C 179.929688 169.300781 174.691406 171.476562 176.085938 172.453125 C 176.539062 172.765625 177.667969 172.214844 178.121094 172.054688 C 178.765625 171.820312 179.410156 171.507812 180.03125 171.234375 C 179.464844 171.207031 176.628906 172.40625 176.929688 173.066406 C 177.449219 174.230469 180.320312 172.675781 180.992188 172.304688 C 180.480469 172.382812 178.703125 173.046875 178.707031 173.691406 C 178.710938 174.710938 180.816406 173.859375 181.277344 173.628906 C 181.613281 173.457031 181.867188 173.210938 182.238281 173.160156 C 182.679688 173.101562 183.109375 173.300781 183.523438 173.386719 C 184.246094 173.539062 185.023438 173.5 185.757812 173.429688 C 186.195312 173.390625 187.210938 173.480469 187.429688 173.109375 C 187.660156 172.710938 187.484375 171.808594 187.148438 171.519531 C 186.785156 171.210938 186.289062 171.148438 185.824219 171.023438 " fill-opacity="1" fill-rule="nonzero"/><path fill="#191730" d="M 162.191406 147.484375 L 158.980469 148.800781 L 170.003906 175.351562 L 173.25 173.605469 L 162.191406 147.484375 " fill-opacity="1" fill-rule="nonzero"/><path fill="#191730" d="M 172.074219 176.394531 L 193.058594 176.394531 L 193.058594 173.140625 L 172.074219 173.140625 Z M 172.074219 176.394531 " fill-opacity="1" fill-rule="nonzero"/><path fill="#191730" d="M 230.175781 158.003906 C 227.367188 156.398438 226.898438 154.632812 228.453125 148.769531 C 230.007812 142.90625 225.941406 136.828125 222.027344 135.214844 C 219.152344 134.035156 216.625 133.515625 214.878906 130.453125 C 213.128906 127.394531 216.441406 120.871094 210.90625 116.035156 C 206.871094 112.515625 201.082031 115.328125 201.082031 115.328125 C 199.835938 114.640625 199.320312 121.890625 199.234375 127.34375 C 206.242188 138.058594 204.246094 152.058594 201.691406 164.054688 C 201.628906 164.347656 201.53125 164.601562 201.433594 164.859375 C 201.984375 174.144531 202.429688 181.832031 202.429688 181.832031 C 202.429688 181.832031 219.285156 191.355469 230.75 183.199219 C 242.214844 175.042969 235.800781 161.214844 230.175781 158.003906 " fill-opacity="1" fill-rule="nonzero"/><path fill="#191730" d="M 180.609375 225.71875 L 176.328125 228.175781 C 176.328125 228.175781 171.085938 241.632812 172.046875 242.808594 C 173.011719 243.984375 183.816406 232.125 184.246094 230.3125 C 184.675781 228.492188 181.867188 226.359375 180.609375 225.71875 " fill-opacity="1" fill-rule="nonzero"/><path fill="#fbcdc7" d="M 186.066406 178.394531 C 186.066406 178.394531 158.566406 180.316406 155.996094 182.773438 C 153.429688 185.230469 176.773438 227.917969 176.773438 227.917969 L 180.609375 225.71875 C 180.609375 225.71875 174.832031 205.421875 173.332031 200.71875 C 171.832031 196.019531 168.945312 190.359375 169.480469 189.613281 C 170.015625 188.863281 197.730469 193.027344 197.515625 185.230469 C 197.300781 177.433594 186.066406 178.394531 186.066406 178.394531 " fill-opacity="1" fill-rule="nonzero"/><path fill="#fbcdc7" d="M 199.625 132.085938 C 199.625 132.085938 202.515625 139.9375 200.753906 145.785156 L 210.382812 143.460938 C 210.382812 143.460938 206.441406 130.324219 204.753906 128.082031 C 203.070312 125.835938 199.625 132.085938 199.625 132.085938 " fill-opacity="1" fill-rule="nonzero"/><path fill="#e8958a" d="M 203.640625 139.136719 C 206.792969 139.136719 208.429688 141.464844 208.578125 143.898438 L 210.382812 143.460938 C 210.382812 143.460938 206.441406 130.324219 204.753906 128.082031 C 203.070312 125.835938 199.625 132.085938 199.625 132.085938 C 199.625 132.085938 200.921875 135.621094 201.246094 139.710938 C 201.917969 139.355469 202.707031 139.136719 203.640625 139.136719 " fill-opacity="1" fill-rule="nonzero"/><path fill="#fbcdc7" d="M 198.628906 121.851562 C 198.628906 121.851562 194.886719 123.636719 193.996094 125.144531 C 193.101562 126.648438 193.882812 128.730469 193.808594 130.105469 C 193.734375 131.480469 193.355469 133.527344 193.5625 133.859375 C 193.773438 134.195312 195.148438 133.859375 195.375 134.15625 C 195.597656 134.453125 197.382812 135.570312 197.941406 136.832031 C 198.5 138.097656 199.246094 138.207031 200.550781 137.574219 C 201.851562 136.945312 206.839844 130.367188 206.898438 127.28125 C 206.953125 124.195312 202.335938 120.589844 198.628906 121.851562 " fill-opacity="1" fill-rule="nonzero"/><path fill="#191730" d="M 201.800781 117.667969 C 201.800781 117.667969 200.054688 121.152344 199.875 122.535156 C 199.695312 123.917969 201.015625 128.003906 201.800781 128.542969 C 202.582031 129.085938 201.921875 123.976562 203.90625 125.539062 C 205.894531 127.101562 203.785156 130.046875 203.90625 130.648438 C 204.027344 131.25 204.929688 133.171875 206.976562 133.351562 C 209.023438 133.53125 212.394531 123.378906 210.167969 120.851562 C 207.941406 118.328125 204.148438 117.667969 201.800781 117.667969 " fill-opacity="1" fill-rule="nonzero"/><path fill="#191730" d="M 202.140625 115.625 C 202.140625 115.625 198.851562 113.160156 195.417969 115.925781 C 191.988281 118.6875 192.105469 122.835938 189.277344 122.476562 C 189.277344 122.476562 191.144531 127.28125 195.238281 126.140625 C 199.332031 125 203.566406 118.507812 202.140625 115.625 " fill-opacity="1" fill-rule="nonzero"/><path fill="#ee219b" d="M 213.351562 169.957031 L 200.59375 168.996094 C 200.59375 168.996094 193.957031 176.394531 187.402344 176.394531 C 180.929688 176.394531 164.984375 176.394531 164.984375 176.394531 C 164.984375 176.394531 166.113281 185.707031 171.511719 193.097656 C 171.511719 193.097656 192.890625 194.664062 203.269531 193.808594 C 213.648438 192.957031 223.515625 181.53125 213.351562 169.957031 " fill-opacity="1" fill-rule="nonzero"/><path fill="#f09cc7" d="M 193.058594 174.839844 L 193.058594 174.828125 C 196.605469 173.015625 199.488281 170.15625 200.339844 169.265625 C 199.488281 170.160156 196.605469 173.023438 193.058594 174.839844 " fill-opacity="1" fill-rule="nonzero"/><path fill="#181624" d="M 187.765625 176.386719 C 187.730469 176.382812 187.699219 176.378906 187.664062 176.375 C 189.515625 176.320312 191.363281 175.695312 193.058594 174.828125 L 193.058594 174.839844 C 191.394531 175.691406 189.582031 176.3125 187.765625 176.386719 " fill-opacity="1" fill-rule="nonzero"/><path fill="#ed1280" d="M 198.898438 177.128906 C 194.828125 177.128906 190.78125 176.691406 187.765625 176.386719 C 189.582031 176.3125 191.394531 175.691406 193.058594 174.839844 C 196.605469 173.023438 199.488281 170.160156 200.339844 169.265625 C 200.6875 169.5 201.296875 169.839844 202.230469 170.148438 C 203.425781 170.546875 205.148438 170.894531 207.527344 170.894531 C 209.183594 170.894531 211.15625 170.726562 213.492188 170.289062 C 213.5 170.289062 213.503906 170.285156 213.511719 170.285156 C 213.515625 170.285156 213.519531 170.285156 213.519531 170.285156 C 213.550781 170.277344 213.585938 170.273438 213.617188 170.265625 C 213.949219 170.660156 214.25 171.054688 214.542969 171.449219 C 212.007812 176.011719 205.421875 177.128906 198.898438 177.128906 " fill-opacity="1" fill-rule="nonzero"/><path fill="#ed1280" d="M 170.242188 177.921875 C 168.375 177.921875 167.695312 177.035156 166.445312 176.394531 L 180.507812 176.394531 C 177.308594 176.796875 174.15625 177.574219 170.902344 177.890625 C 170.667969 177.914062 170.449219 177.921875 170.242188 177.921875 " fill-opacity="1" fill-rule="nonzero"/><path fill="#4ac0d2" d="M 209.160156 139.027344 C 209.160156 139.027344 203.304688 141.328125 201.320312 141.539062 C 201.320312 141.539062 197.191406 150.621094 195.585938 153.078125 C 193.984375 155.535156 199.65625 164.933594 199.976562 168.996094 C 199.976562 168.996094 203.386719 172.242188 213.71875 170.246094 C 213.71875 170.246094 216.414062 144.742188 209.160156 139.027344 " fill-opacity="1" fill-rule="nonzero"/><path fill="#4a256e" d="M 207.527344 170.894531 C 205.148438 170.894531 203.425781 170.546875 202.230469 170.148438 C 203.425781 170.546875 205.152344 170.894531 207.53125 170.894531 C 209.1875 170.894531 211.160156 170.726562 213.492188 170.289062 C 211.15625 170.726562 209.183594 170.894531 207.527344 170.894531 M 213.511719 170.285156 C 213.515625 170.285156 213.515625 170.285156 213.519531 170.285156 C 213.519531 170.285156 213.515625 170.285156 213.511719 170.285156 " fill-opacity="1" fill-rule="nonzero"/><path fill="#388dbb" d="M 207.53125 170.894531 C 205.152344 170.894531 203.425781 170.546875 202.230469 170.148438 C 201.457031 169.890625 200.90625 169.613281 200.542969 169.390625 C 202.15625 167.453125 203.410156 165.082031 203.910156 163.164062 C 204.546875 160.707031 204.707031 157.351562 204.84375 154.828125 C 204.976562 152.425781 203.867188 148.484375 204.945312 146.265625 C 205.589844 144.941406 207.457031 144.136719 209.109375 144.136719 C 209.695312 144.136719 210.257812 144.238281 210.726562 144.453125 C 211.191406 144.667969 211.882812 144.90625 212.628906 145.15625 C 215.320312 154.542969 213.769531 169.753906 213.722656 170.234375 C 213.722656 170.234375 213.722656 170.234375 213.722656 170.238281 C 213.722656 170.242188 213.71875 170.242188 213.71875 170.242188 C 213.71875 170.246094 213.71875 170.246094 213.71875 170.246094 C 213.652344 170.257812 213.585938 170.269531 213.519531 170.285156 C 213.515625 170.285156 213.515625 170.285156 213.511719 170.285156 C 213.503906 170.285156 213.5 170.289062 213.492188 170.289062 C 211.160156 170.726562 209.1875 170.894531 207.53125 170.894531 " fill-opacity="1" fill-rule="nonzero"/><path fill="#fbcdc7" d="M 187.832031 171.023438 C 186.796875 170.746094 185.941406 170.40625 184.992188 169.886719 C 184.234375 169.472656 183.5 169.074219 182.585938 169.207031 C 181.9375 169.300781 176.695312 171.476562 178.089844 172.453125 C 178.542969 172.765625 179.675781 172.214844 180.128906 172.054688 C 180.769531 171.820312 181.417969 171.507812 182.035156 171.234375 C 181.472656 171.207031 178.636719 172.40625 178.933594 173.066406 C 179.457031 174.230469 182.328125 172.675781 182.996094 172.304688 C 182.484375 172.382812 180.710938 173.046875 180.714844 173.691406 C 180.71875 174.710938 182.824219 173.859375 183.285156 173.628906 C 183.621094 173.457031 183.875 173.210938 184.246094 173.160156 C 184.683594 173.101562 185.113281 173.300781 185.527344 173.386719 C 186.253906 173.539062 187.027344 173.5 187.765625 173.429688 C 188.203125 173.390625 189.21875 173.480469 189.4375 173.109375 C 189.667969 172.710938 189.492188 171.808594 189.152344 171.519531 C 188.792969 171.210938 188.296875 171.148438 187.832031 171.023438 " fill-opacity="1" fill-rule="nonzero"/><path fill="#4ac0d2" d="M 186.945312 170.894531 L 188.070312 175.109375 C 188.070312 175.109375 215.679688 171.90625 216.320312 167.015625 C 216.960938 162.128906 215.195312 139.382812 208.535156 141.742188 C 201.875 144.101562 208.457031 160.609375 207.410156 161.890625 C 206.371094 163.171875 186.945312 170.894531 186.945312 170.894531 " fill-opacity="1" fill-rule="nonzero"/></svg>